<?xml version="1.0" ?><svg id="Layer_1" style="enable-background:new 0 0 512 512;" version="1.1" viewBox="0 0 512 512" xml:space="preserve" xmlns="http://www.w3.org/2000/svg" xmlns:xlink="http://www.w3.org/1999/xlink"><style type="text/css">
	.st0{fill:#1EF6F6;}
	.st1{fill:#FDDD7B;}
	.st2{fill:#EAF3F2;}
	.st3{fill:#D4FF93;}
	.st4{fill:#FD535F;}
	.st5{stroke:#000000;stroke-width:2;stroke-linecap:round;stroke-linejoin:round;stroke-miterlimit:10;}
	.st6{fill:none;stroke:#000000;stroke-width:2;stroke-linecap:round;stroke-linejoin:round;stroke-miterlimit:10;}
	.st7{fill:#1EF6F6;stroke:#000000;stroke-width:2;stroke-linecap:round;stroke-linejoin:round;stroke-miterlimit:10;}
</style><g><g><polyline class="st3" points="452.23,79.24 452.23,8.72 34.95,8.72 34.95,503.27 452.23,503.27 452.23,293.18   "/><path d="M452.23,511H34.95c-4.27,0-7.73-3.46-7.73-7.73V8.73c0-4.27,3.46-7.73,7.73-7.73h417.27c4.27,0,7.73,3.46,7.73,7.73v70.51    c0,4.27-3.46,7.73-7.73,7.73c-4.27,0-7.73-3.46-7.73-7.73V16.46H42.68v479.09H444.5V293.18c0-4.27,3.46-7.73,7.73-7.73    c4.27,0,7.73,3.46,7.73,7.73v210.09C459.95,507.54,456.49,511,452.23,511z"/></g><g><polyline class="st1" points="161.72,306.99 154.28,363.07 132.17,398.78 107.51,434.5 107.51,448.95 140.67,448.95     164.49,430.25 193.4,418.34 257.5,411.85   "/><path d="M140.68,456.68h-33.17c-4.27,0-7.73-3.46-7.73-7.73V434.5c0-1.57,0.48-3.1,1.37-4.39l24.66-35.72l21.03-33.98l7.23-54.44    c0.57-4.23,4.43-7.17,8.68-6.64c4.23,0.56,7.2,4.44,6.64,8.68l-7.44,56.08c-0.14,1.08-0.51,2.12-1.09,3.05l-22.11,35.72    l-23.5,34.06v4.32H138l21.71-17.05c0.56-0.44,1.17-0.8,1.83-1.07l28.91-11.91c0.69-0.29,1.42-0.47,2.16-0.54l64.1-6.5    c4.32-0.32,8.04,2.66,8.47,6.91c0.43,4.24-2.66,8.04-6.91,8.47l-62.98,6.38l-26.88,11.07l-22.97,18.04    C144.09,456.1,142.41,456.68,140.68,456.68z"/></g><g><path d="M319.32,90.42H103.53c-4.27,0-7.73-3.46-7.73-7.73s3.46-7.73,7.73-7.73h215.79c4.27,0,7.73,3.46,7.73,7.73    S323.59,90.42,319.32,90.42z"/></g><g><path d="M278.11,138.23H103.53c-4.27,0-7.73-3.46-7.73-7.73c0-4.27,3.46-7.73,7.73-7.73h174.58c4.27,0,7.73,3.46,7.73,7.73    C285.84,134.78,282.38,138.23,278.11,138.23z"/></g><g><path d="M236.9,181.7H103.53c-4.27,0-7.73-3.46-7.73-7.73s3.46-7.73,7.73-7.73H236.9c4.27,0,7.73,3.46,7.73,7.73    S241.16,181.7,236.9,181.7z"/></g><g><path class="st0" d="M257.5,412.4l-95.78-104.85l205.03-187.28c18.18-16.6,46.37-15.33,62.98,2.85l35.65,39.03    c16.6,18.18,15.33,46.37-2.85,62.98l-24.27,22.17L257.5,412.4z"/><path d="M257.51,420.13c-2.1,0-4.18-0.85-5.71-2.51l-95.78-104.85c-1.38-1.52-2.11-3.52-2.01-5.56c0.09-2.05,1-3.98,2.51-5.36    l205.02-187.28c21.29-19.45,54.44-17.94,73.9,3.34l35.65,39.02c9.43,10.32,14.27,23.69,13.64,37.65    c-0.63,13.95-6.66,26.83-16.98,36.25L262.72,418.11C261.23,419.46,259.37,420.13,257.51,420.13z M172.64,308.04L258,401.48    l199.32-182.07c7.27-6.64,11.52-15.71,11.96-25.54s-2.97-19.25-9.61-26.52l-35.65-39.02c-13.71-15.02-37.06-16.07-52.06-2.36    L172.64,308.04z"/></g></g></svg>